<svg width="162" height="93" viewBox="0 0 162 93" fill="none" xmlns="http://www.w3.org/2000/svg">
<path d="M64.3606 0.299847L61.3455 0.549726V1.17764H61.852C62.2862 1.22514 62.7164 1.30413 63.1392 1.41399L63.7985 1.58529L64.8991 2.03371L64.9205 2.0461C65.5371 2.40411 66.123 2.81242 66.6724 3.26685L66.7872 3.39081C67.2192 3.85736 67.604 4.36544 67.9361 4.90765L68.2479 5.57631C68.3187 5.72817 68.377 5.88553 68.4223 6.04685C68.4987 6.31881 68.5374 6.59996 68.5374 6.88244V7.91407L68.51 8.14232C68.4876 8.32957 68.4505 8.51478 68.399 8.69623C68.3352 8.92162 68.2495 9.14025 68.1433 9.34903L68.0075 9.61601L67.9536 9.71925C67.7453 10.1185 67.5042 10.4999 67.2329 10.8593C66.9073 11.2601 66.6137 11.6857 66.3547 12.1324L65.9998 12.7447L65.6023 13.7027L65.4546 14.111C65.2952 14.5514 65.1727 15.0044 65.0883 15.4651C64.9964 15.9673 64.9501 16.4768 64.9501 16.9874V18.2073L65.1743 20.1742L65.2426 21.6597C65.2563 21.9574 65.0186 22.2063 64.7206 22.2063C64.6929 22.2063 64.6653 22.2041 64.638 22.1997L64.4711 22.173C64.3335 22.151 64.198 22.1182 64.0656 22.0749L63.8084 21.9907L63.9411 22.1399L64.1664 22.3101C64.2866 22.4008 64.4174 22.4767 64.5558 22.536L64.7515 22.6199C64.7914 22.637 64.8336 22.6481 64.8767 22.6528L65.0534 22.6721C65.1753 22.6854 65.2677 22.7884 65.2677 22.911V23.561C65.2677 24.0483 65.1979 24.533 65.0604 25.0004C64.8619 25.4636 64.6194 25.9068 64.3364 26.3238L63.9909 26.8327L63.4519 27.5623L63.2761 27.831C63.1953 27.9544 63.1422 28.0939 63.1205 28.2398L63.1075 28.3269C63.0995 28.3806 63.1004 28.4353 63.1103 28.4887C63.1375 28.6368 63.231 28.7642 63.3639 28.8348L63.4821 28.8975C63.5337 28.9249 63.5882 28.9463 63.6446 28.9613L64.4303 29.1708L64.8589 29.3494C65.0813 29.4421 65.2262 29.6594 65.2262 29.9004L65.1682 30.3896L65.1476 30.4721C65.1062 30.6376 65.0853 30.8075 65.0853 30.9781V31.412C65.0853 31.5454 65.1252 31.6758 65.1999 31.7863C65.2608 31.8764 65.3427 31.9503 65.4385 32.0015L65.6491 32.1142L65.8545 32.2066C66.0322 32.2866 66.1465 32.4634 66.1465 32.6583C66.1465 32.7729 66.1068 32.8839 66.0341 32.9725L65.9379 33.0897C65.9003 33.1356 65.8691 33.1864 65.8452 33.2407L65.8107 33.3191C65.7971 33.3501 65.79 33.3836 65.79 33.4175C65.79 33.4947 65.8265 33.5674 65.8885 33.6135L66.1465 33.8056C66.3675 33.9353 66.5107 34.1654 66.5294 34.421L66.5839 35.1657C66.599 35.3733 66.5847 35.5819 66.5414 35.7855L66.4995 35.982L66.4415 36.3213C66.4087 36.5128 66.3922 36.7069 66.3922 36.9012V37.6588C66.3922 37.9776 66.5044 38.2862 66.7092 38.5304C66.8107 38.6515 66.9325 38.7539 67.0692 38.8331L67.1108 38.8572C67.359 39.0008 67.6408 39.0765 67.9276 39.0765H68.136C68.3642 39.0765 68.5911 39.0441 68.8102 38.9801L70.2046 38.5731L72.2181 37.7892L73.7218 37.2702C73.9624 37.1872 74.2086 37.1216 74.4586 37.074L74.6236 37.0426C74.8404 37.0013 75.0607 36.9805 75.2814 36.9805H75.605C75.8479 36.9805 76.0885 37.0278 76.3133 37.1198C76.5673 37.2237 76.7954 37.3823 76.9813 37.5842L76.9915 37.5953C77.1853 37.8058 77.3301 38.0567 77.4155 38.3299L77.4791 38.5335C77.5663 38.8125 77.6106 39.103 77.6106 39.3953V39.793C77.6106 40.4413 77.4959 41.0845 77.2718 41.6928L77.219 41.8362C77.1014 42.1555 76.9583 42.4648 76.7911 42.7611L76.3277 43.5825L76.221 43.7382C75.7743 44.3897 75.2475 44.9825 74.653 45.5027C74.1256 45.9642 73.5483 46.3654 72.932 46.6991L72.6475 46.8531C72.0167 47.1946 71.3574 47.4803 70.677 47.7071L70.1406 47.8859L69.083 48.0881C68.3174 48.2345 67.5397 48.3082 66.7603 48.3082C66.0703 48.3082 65.3816 48.2504 64.7012 48.1356L64.4731 48.097L64.4532 48.0926C63.8402 47.9552 63.2428 47.7553 62.6706 47.4962L61.274 46.7492L60.2184 45.986L59.5039 45.3201L59.7274 45.7672C59.9243 46.1609 60.1622 46.5328 60.4372 46.8765C60.7664 47.288 61.1463 47.6562 61.5678 47.9723L61.763 48.1187C62.2474 48.4821 62.7708 48.7904 63.3234 49.0382L63.4297 49.0858C64.0584 49.3676 64.7167 49.5781 65.3922 49.7132L66.162 49.8671C66.9293 49.9968 67.7061 50.062 68.4843 50.062H69.3124L70.8226 49.8671L71.0328 49.8202C72.2472 49.549 73.433 49.1623 74.5739 48.6654L74.7806 48.5384C75.6803 47.9854 76.5296 47.3541 77.3183 46.6518L77.7681 46.1775C78.0633 45.8662 78.335 45.5334 78.5811 45.1819C78.9399 44.6693 79.2423 44.1194 79.483 43.5418L79.6081 43.2415L79.6987 42.9048C79.8654 42.2859 79.9817 41.6544 80.0465 41.0167C80.0465 40.0654 79.9742 39.1155 79.8303 38.1751L79.8029 37.9963L79.332 36.4048L78.926 35.3168L77.8055 33.1082L76.8312 31.3869L73.6483 26.5476L71.8782 23.8032L70.5141 21.4322L69.491 19.4673L69.1175 18.5417L68.6466 17.275L68.3543 16.122L68.1981 15.4284C68.0321 14.6914 67.9483 13.9382 67.9483 13.1827V12.3545C68.0239 11.7603 68.1542 11.1744 68.3375 10.6042L68.3543 10.552L68.6466 9.73999L69.3286 8.2947L69.8158 7.40154C70.3239 6.67724 70.8863 5.99262 71.4983 5.3536L71.519 5.33193L72.1439 4.83308C72.6404 4.43673 73.167 4.07974 73.7191 3.76537V2.76323L75.9653 2.64804H78.5801L79.8817 2.76323L80.976 2.94753L82.6117 3.31613L83.8211 3.69625L85.0306 4.13397L86.3438 4.68688L87.5648 5.41256L88.0349 5.75527C88.5421 6.12503 89.015 6.53978 89.4477 6.9945L89.5553 7.10761C89.9551 7.52777 90.3127 7.9862 90.6229 8.47629L90.7273 8.64132C90.9606 9.00991 91.1579 9.40001 91.3167 9.80629C91.495 10.2624 91.6236 10.7363 91.7003 11.2199L91.718 11.3311C91.7827 11.7389 91.8152 12.1512 91.8152 12.564V12.6281C91.8152 13.2528 91.7478 13.8757 91.614 14.4859L91.6055 14.5246C91.4998 15.0072 91.3546 15.4803 91.1716 15.9391L90.9217 16.5655C90.7114 17.0929 90.4623 17.6039 90.1765 18.0945L89.8729 18.6158C89.5891 19.1031 89.2451 19.5528 88.8492 19.9543C88.4329 20.3764 87.9627 20.7417 87.4508 21.0407L86.8969 21.3641C86.3454 21.6862 85.7681 21.9621 85.1711 22.1889L84.7943 22.332C84.14 22.5805 83.465 22.7703 82.7771 22.8992L83.4491 24.4879L85.0688 24.8118L87.2571 25.3287L88.4002 25.6906C89.2333 25.9543 90.0415 26.2908 90.8156 26.6963L90.991 26.7881C91.5451 27.0784 92.0762 27.4105 92.5798 27.7815C93.1656 28.2132 93.712 28.696 94.2124 29.2242L94.7009 29.7398L95.1623 30.378C95.3943 30.6988 95.6029 31.0359 95.7867 31.3866C95.9815 31.7586 96.1477 32.1449 96.2839 32.5421L96.4721 33.0909C96.6236 33.5328 96.7416 33.9854 96.8252 34.445C96.9251 34.9945 96.9754 35.5519 96.9754 36.1105V36.4018C96.9754 37.1626 96.9061 37.9219 96.7685 38.6702L96.6997 39.0445L96.5577 39.6571C96.4343 40.1898 96.2683 40.7117 96.0612 41.2178L95.985 41.4041C95.8299 41.7833 95.6447 42.1494 95.4313 42.4991C95.1064 43.0314 94.7179 43.5222 94.2745 43.9608L94.0169 44.2155C93.6006 44.6272 93.151 45.0039 92.6728 45.3418L92.6507 45.3574C92.0889 45.7543 91.491 46.0976 90.865 46.3827L90.0658 46.7467L87.4639 47.591L85.8787 47.884L83.2768 48.1769H80.158C79.7702 48.1455 78.7401 48.0679 77.7225 48.008C76.6809 49.313 74.0459 50.2878 72.8586 50.612H77.5279H81.1346L84.8162 50.4025L87.7345 50.0733L90.4133 49.6393L92.5534 49.1604L95.3819 48.1427L97.1927 47.2897L97.7926 46.907C98.5483 46.4249 99.2559 45.8713 99.9056 45.2538L100.054 45.1124C100.51 44.679 100.93 44.2088 101.309 43.7067L101.407 43.5771C101.73 43.1496 102.016 42.6957 102.263 42.2202C102.563 41.6405 102.804 41.0314 102.981 40.4026L103.089 40.0164C103.288 39.3107 103.399 38.5832 103.421 37.8504L103.432 37.4994C103.453 36.7844 103.409 36.0689 103.301 35.3618L103.239 34.958L103.131 34.6C102.854 33.6826 102.51 32.7868 102.101 31.92L101.443 30.8275L100.71 29.8398L99.5872 28.5377L98.0833 27.1814C97.669 26.8078 97.2266 26.4668 96.7598 26.1614C96.3283 25.8791 95.8771 25.6279 95.4098 25.4098L94.8623 25.1543L93.0798 24.4879L88.5654 23.2219L89.8814 22.7055L91.1474 22.1391C92.0674 21.6846 92.9458 21.1503 93.7723 20.5423L93.9794 20.39L94.9956 19.5404L95.8618 18.6741L95.9239 18.5932C96.5033 17.8378 97.0176 17.0345 97.461 16.192L97.7398 15.5449C97.8647 15.2548 97.9687 14.9562 98.0508 14.6512C98.2011 14.0927 98.2773 13.5169 98.2773 12.9386V12.6604V12.359C98.2773 11.7962 98.2013 11.2361 98.0514 10.6937C97.9689 10.3949 97.8642 10.1028 97.7384 9.81955L97.461 9.19547L97.3118 8.92076C96.9236 8.20609 96.4658 7.53145 95.9451 6.90666C95.4685 6.33474 94.9413 5.80702 94.3698 5.32993L94.3294 5.29624C93.6536 4.73209 92.922 4.23833 92.146 3.82262L90.5144 2.94855L88.0989 2.03233L83.268 0.866242L77.7207 0.116607L73.9393 0H71.4072L67.0427 0.116607L64.3606 0.299847Z" fill="white"/>
<path d="M73.3629 4.44315L73.5493 4.27246L73.4273 4.49862C73.1047 5.09676 72.8313 5.72015 72.6098 6.36262L72.3601 7.25302L72.3464 7.32516C72.1895 8.15178 72.1105 8.99131 72.1105 9.8327L72.2936 11.3139L72.6181 12.8285L73.159 14.3347L74.0577 16.3401L75.5473 18.9698L76.9203 21.2415L78.0437 22.806L80.0076 25.4772L81.7135 27.9237L83.1032 29.7878L84.1744 31.4946L84.9598 32.8283L85.4249 33.8191C85.7956 34.6088 86.0865 35.4336 86.2935 36.2811L86.3952 36.6238C86.5145 37.0255 86.575 37.4423 86.575 37.8613C86.575 38.1996 86.5355 38.5368 86.4574 38.866L86.2935 39.556C86.0873 40.214 85.7807 40.8362 85.3846 41.4006L84.7968 42.2382C83.852 43.3306 82.7758 44.302 81.5926 45.1302L81.1514 45.4391L79.0619 46.5208L80.1881 45.1131L80.709 44.448C81.0032 44.0722 81.2615 43.6696 81.4804 43.2455C81.7345 42.7533 81.9341 42.2348 82.0757 41.6993L82.2035 41.2157L82.2458 41.0278C82.395 40.3648 82.4702 39.6873 82.4702 39.0077L82.3813 38.0445C82.263 37.1474 82.0622 36.2631 81.7813 35.403L81.7293 35.2437L81.0328 33.6878C80.7368 33.0366 80.3939 32.4078 80.0067 31.8064L79.1953 30.5462L78.3654 29.2125L76.2315 26.3821L75.1053 24.8706L73.2678 22.3366L72.4527 21.1214L71.6821 19.847L70.3929 17.1796L69.9335 15.8904L69.7864 15.3373C69.5984 14.6308 69.479 13.9079 69.4297 13.1786V11.7559V11.464C69.4297 11.0772 69.4778 10.692 69.5729 10.3172C69.6452 10.0322 69.7443 9.75473 69.8689 9.48841L70.1114 8.97002L70.8967 7.50296L71.7859 6.16926C72.2591 5.54811 72.7869 4.97045 73.3629 4.44315Z" fill="#FF0090"/>
<path d="M73.6882 38.585C72.6294 39.3268 69.5617 40.0705 68.1602 40.3496C68.2455 41.3117 68.365 44.0092 68.1602 47.1027C71.3127 46.4906 73.4074 45.1974 73.6882 44.7972V38.585Z" fill="#FF0090"/>
<path d="M15.9668 69.377C15.9668 69.7676 15.8984 70.168 15.7617 70.5781C15.2734 71.9453 14.1504 72.9121 12.3926 73.4785C12.8613 73.5371 13.3105 73.625 13.7402 73.7422C16.1035 74.3672 17.2852 75.7637 17.2852 77.9316C17.2852 78.9082 16.9922 79.8066 16.4062 80.627C15.2148 82.209 13.2812 83 10.6055 83H0.585938V82.209H2.92969V66.2129H0.585938V65.4219H10.0781C11.1523 65.4219 12.1094 65.5391 12.9492 65.7734C14.9609 66.3594 15.9668 67.5605 15.9668 69.377ZM8.4375 66.2129H7.03125V73.0684H8.67188C9.02344 73.0684 9.35547 73.0293 9.66797 72.9512C11.0352 72.5605 11.7188 71.4473 11.7188 69.6113C11.6992 67.3848 10.6055 66.252 8.4375 66.2129ZM9.43359 73.8887H7.03125V82.209H8.99414C9.24805 82.209 9.50195 82.1895 9.75586 82.1504C11.7871 81.8574 12.8027 80.3828 12.8027 77.7266C12.8027 77.1406 12.7148 76.5938 12.5391 76.0859C12.0312 74.6211 10.9961 73.8887 9.43359 73.8887ZM29.3848 83.293C27.8223 83.1953 26.8359 82.3066 26.4258 80.627C26.3281 80.9004 26.2012 81.1641 26.0449 81.418C25.2637 82.668 24.043 83.293 22.3828 83.293C21.8359 83.293 21.3379 83.2246 20.8887 83.0879C19.3652 82.5996 18.6035 81.4863 18.6035 79.748C18.623 77.1895 21.1426 75.8613 26.1621 75.7637V73.8594C26.1621 73.293 26.123 72.8047 26.0449 72.3945C25.8496 71.2812 25.293 70.7246 24.375 70.7246C24.1016 70.7246 23.8574 70.7734 23.6426 70.8711C23.3105 71.0664 23.0371 71.5547 22.8223 72.3359C22.7441 72.6094 22.6855 72.8047 22.6465 72.9219C22.3535 73.7422 21.7871 74.1523 20.9473 74.1523C20.752 74.1523 20.5664 74.123 20.3906 74.0645C19.668 73.8691 19.3066 73.3906 19.3066 72.6289C19.3066 72.2969 19.3945 71.9844 19.5703 71.6914C20.2539 70.5391 21.9238 69.9629 24.5801 69.9629C25.2637 69.9629 25.8984 70.0312 26.4844 70.168C28.75 70.7344 29.8828 72.2383 29.8828 74.6797V80.8027C29.8828 81.7402 30.0977 82.2285 30.5273 82.2676C31.0938 82.248 31.4355 81.5645 31.5527 80.2168L32.3145 80.2461C32.2559 80.8516 32.168 81.3496 32.0508 81.7402C31.6992 82.7754 30.8105 83.293 29.3848 83.293ZM23.9062 82.0332C24.043 82.0332 24.1992 82.0039 24.375 81.9453C25.1953 81.6328 25.791 80.793 26.1621 79.4258V76.584C25.2832 76.623 24.5605 76.7305 23.9941 76.9062C22.9395 77.2969 22.4121 78.1367 22.4121 79.4258C22.4316 81.125 22.9297 81.9941 23.9062 82.0332ZM39.2285 82.2383C39.3457 82.2383 39.4531 82.248 39.5508 82.2676C39.8047 82.3066 39.9316 82.5508 39.9316 83H33.0469V82.2383C33.1836 82.2383 33.3203 82.2285 33.457 82.209C34.3359 82.1309 34.7754 81.6328 34.7754 80.7148V64.7188H33.0469V63.957H38.4961V72.5996C38.6328 72.3262 38.7988 72.0527 38.9941 71.7793C39.9316 70.5684 41.1914 69.9629 42.7734 69.9629C43.2812 69.9629 43.75 70.041 44.1797 70.1973C45.918 70.7832 46.7871 72.2969 46.7871 74.7383V82.2383H47.7539C47.8711 82.2383 47.9883 82.248 48.1055 82.2676C48.3594 82.3066 48.4863 82.5508 48.4863 83H41.9238V82.2383C42.2559 82.2383 42.5195 82.1895 42.7148 82.0918C42.9492 81.9551 43.0664 81.4961 43.0664 80.7148V74.2402C43.0664 74.0449 43.0566 73.8691 43.0371 73.7129C42.9004 72.248 42.2363 71.5156 41.0449 71.5156C40.7324 71.5156 40.4102 71.6035 40.0781 71.7793C39.0234 72.3457 38.4961 73.4883 38.4961 75.207V82.2383H39.2285ZM49.3652 71.3105V70.5488H51.3867V67.7656L55.1074 67.1504V70.5488H58.9746V71.3105H55.1074V80.1875C55.1074 80.4414 55.127 80.6855 55.166 80.9199C55.3223 81.9355 55.7617 82.4434 56.4844 82.4434C56.6016 82.4434 56.7188 82.4336 56.8359 82.4141C57.5977 82.2578 58.1738 81.3887 58.5645 79.8066L59.3555 79.9238C59.1992 80.7246 58.9844 81.3691 58.7109 81.8574C58.1445 82.834 57.1094 83.3223 55.6055 83.3223C55.3711 83.3223 55.1367 83.3125 54.9023 83.293C52.5586 83.0195 51.3867 81.4668 51.3867 78.6348V71.3105H49.3652ZM84.3164 83H83.7305C83.3984 83 83.125 82.9414 82.9102 82.8242C82.5586 82.6289 82.1484 81.9355 81.6797 80.7441L78.5156 72.5117L74.6484 83H74.0625C73.7305 83 73.457 82.9414 73.2422 82.8242C72.8906 82.6289 72.4805 81.9355 72.0117 80.7441L66.3867 66.2129H64.9219V65.4219H72.8613V66.2129H70.5176L75.1172 79.0156L77.9883 71.1934L75.7617 65.4219H82.5586V66.2129L80.2148 66.1836L84.7559 78.752L88.8867 66.2129H86.543V65.4219H91.377V66.2129H89.9121L84.3164 83ZM96.2695 76.6426C96.2695 78.4785 96.3867 79.8164 96.6211 80.6562C96.9727 81.9062 97.7539 82.5312 98.9648 82.5312C99.6484 82.5312 100.205 82.3262 100.635 81.916C101.377 81.1738 101.748 79.377 101.748 76.5254C101.748 74.748 101.631 73.4492 101.396 72.6289C101.045 71.3594 100.244 70.7246 98.9941 70.7246C98.252 70.7246 97.6758 70.9492 97.2656 71.3984C96.6016 72.1602 96.2695 73.9082 96.2695 76.6426ZM99.1406 69.9629C100.82 69.9629 102.256 70.4219 103.447 71.3398C104.99 72.5703 105.762 74.2793 105.762 76.4668C105.762 78.1074 105.273 79.5527 104.297 80.8027C102.988 82.4629 101.182 83.293 98.877 83.293C97.1973 83.293 95.752 82.7852 94.541 81.7695C93.0176 80.4805 92.2559 78.7324 92.2559 76.5254C92.2559 74.9629 92.7051 73.5957 93.6035 72.4238C94.8926 70.7832 96.7383 69.9629 99.1406 69.9629ZM113.174 82.2383C113.291 82.2383 113.398 82.248 113.496 82.2676C113.75 82.3066 113.877 82.5508 113.877 83H107.227V82.2383C107.383 82.2383 107.529 82.2285 107.666 82.209C108.506 82.1113 108.926 81.6133 108.926 80.7148V71.1641H107.227V70.4023H112.441L112.588 72.541C113.447 70.8418 114.814 69.9824 116.689 69.9629C117.002 69.9629 117.314 70.002 117.627 70.0801C118.818 70.4316 119.648 71.3008 120.117 72.6875C121.055 70.8906 122.471 69.9824 124.365 69.9629C125.049 69.9629 125.684 70.1484 126.27 70.5195C127.539 71.3203 128.174 72.6777 128.174 74.5918V82.2383H129.141C129.258 82.2383 129.375 82.248 129.492 82.2676C129.746 82.3066 129.873 82.5508 129.873 83H123.193V82.2383C123.506 82.2383 123.75 82.209 123.926 82.1504C124.297 81.9941 124.482 81.5156 124.482 80.7148V74.2402C124.482 73.752 124.424 73.3027 124.307 72.8926C123.994 71.8965 123.418 71.3984 122.578 71.3984C122.383 71.3984 122.188 71.4375 121.992 71.5156C121.074 71.9062 120.547 72.9121 120.41 74.5332V74.7383V82.2383H120.908C121.025 82.2383 121.143 82.248 121.26 82.2676C121.514 82.3066 121.641 82.5508 121.641 83H115.43V82.2383C115.742 82.2383 115.986 82.209 116.162 82.1504C116.533 81.9941 116.719 81.5156 116.719 80.7148V74.2402C116.719 73.7129 116.65 73.2344 116.514 72.8047C116.201 71.9062 115.684 71.457 114.961 71.457C114.707 71.457 114.453 71.5254 114.199 71.6621C113.301 72.1309 112.793 73.1367 112.676 74.6797L112.646 82.2383H113.174ZM141.68 83.293C140.117 83.1953 139.131 82.3066 138.721 80.627C138.623 80.9004 138.496 81.1641 138.34 81.418C137.559 82.668 136.338 83.293 134.678 83.293C134.131 83.293 133.633 83.2246 133.184 83.0879C131.66 82.5996 130.898 81.4863 130.898 79.748C130.918 77.1895 133.438 75.8613 138.457 75.7637V73.8594C138.457 73.293 138.418 72.8047 138.34 72.3945C138.145 71.2812 137.588 70.7246 136.67 70.7246C136.396 70.7246 136.152 70.7734 135.938 70.8711C135.605 71.0664 135.332 71.5547 135.117 72.3359C135.039 72.6094 134.98 72.8047 134.941 72.9219C134.648 73.7422 134.082 74.1523 133.242 74.1523C133.047 74.1523 132.861 74.123 132.686 74.0645C131.963 73.8691 131.602 73.3906 131.602 72.6289C131.602 72.2969 131.689 71.9844 131.865 71.6914C132.549 70.5391 134.219 69.9629 136.875 69.9629C137.559 69.9629 138.193 70.0312 138.779 70.168C141.045 70.7344 142.178 72.2383 142.178 74.6797V80.8027C142.178 81.7402 142.393 82.2285 142.822 82.2676C143.389 82.248 143.73 81.5645 143.848 80.2168L144.609 80.2461C144.551 80.8516 144.463 81.3496 144.346 81.7402C143.994 82.7754 143.105 83.293 141.68 83.293ZM136.201 82.0332C136.338 82.0332 136.494 82.0039 136.67 81.9453C137.49 81.6328 138.086 80.793 138.457 79.4258V76.584C137.578 76.623 136.855 76.7305 136.289 76.9062C135.234 77.2969 134.707 78.1367 134.707 79.4258C134.727 81.125 135.225 81.9941 136.201 82.0332ZM151.494 82.2383C151.611 82.2383 151.719 82.248 151.816 82.2676C152.07 82.3066 152.197 82.5508 152.197 83H145.342V82.2383C145.498 82.2383 145.645 82.2285 145.781 82.209C146.621 82.1113 147.041 81.6133 147.041 80.7148V71.1641H145.342V70.4023H150.557L150.703 72.6875C150.879 72.3359 151.113 71.9941 151.406 71.6621C152.402 70.5293 153.613 69.9629 155.039 69.9629C155.547 69.9629 156.035 70.041 156.504 70.1973C158.223 70.8027 159.082 72.3164 159.082 74.7383V82.2383H160.049C160.166 82.2383 160.283 82.248 160.4 82.2676C160.654 82.3066 160.781 82.5508 160.781 83H154.014V82.2383C154.287 82.2383 154.521 82.209 154.717 82.1504C155.146 82.0137 155.361 81.5352 155.361 80.7148V74.2402C155.361 73.9668 155.342 73.7031 155.303 73.4492C155.107 72.1406 154.453 71.4863 153.34 71.4863C153.047 71.4863 152.764 71.5547 152.49 71.6914C151.494 72.1797 150.928 73.1953 150.791 74.7383L150.762 82.2383H151.494Z" fill="white"/>
</svg>
