<svg width="36" height="36" viewBox="0 0 36 36" fill="none" xmlns="http://www.w3.org/2000/svg">
<g id="Icon">
<g id="Group 1502">
<g id="Selected" filter="url(#filter0_dd_35_211)">
<path fill-rule="evenodd" clip-rule="evenodd" d="M18 33C26.2843 33 33 26.2843 33 18C33 9.71573 26.2843 3 18 3C9.71573 3 3 9.71573 3 18C3 26.2843 9.71573 33 18 33Z" fill="#FFD0D4"/>
</g>
<path id="Selected_2" fill-rule="evenodd" clip-rule="evenodd" d="M18 4.5C10.5442 4.5 4.5 10.5442 4.5 18C4.5 25.4558 10.5442 31.5 18 31.5C25.4558 31.5 31.5 25.4558 31.5 18C31.5 10.5442 25.4558 4.5 18 4.5Z" fill="#FFD0D4"/>
<g id="Selected_3" filter="url(#filter1_d_35_211)">
<path fill-rule="evenodd" clip-rule="evenodd" d="M18 25.5C22.1421 25.5 25.5 22.1421 25.5 18C25.5 13.8579 22.1421 10.5 18 10.5C13.8579 10.5 10.5 13.8579 10.5 18C10.5 22.1421 13.8579 25.5 18 25.5Z" fill="url(#paint0_linear_35_211)"/>
</g>
<g id="Selected_4" filter="url(#filter2_d_35_211)">
<path fill-rule="evenodd" clip-rule="evenodd" d="M18 24C21.3137 24 24 21.3137 24 18C24 14.6863 21.3137 12 18 12C14.6863 12 12 14.6863 12 18C12 21.3137 14.6863 24 18 24Z" fill="url(#paint1_linear_35_211)"/>
</g>
</g>
</g>
<defs>
<filter id="filter0_dd_35_211" x="2.8" y="2.8" width="32.2" height="32.2" filterUnits="userSpaceOnUse" color-interpolation-filters="sRGB">
<feFlood flood-opacity="0" result="BackgroundImageFix"/>
<feColorMatrix in="SourceAlpha" type="matrix" values="0 0 0 0 0 0 0 0 0 0 0 0 0 0 0 0 0 0 127 0" result="hardAlpha"/>
<feOffset dx="1" dy="1"/>
<feGaussianBlur stdDeviation="0.5"/>
<feColorMatrix type="matrix" values="0 0 0 0 0 0 0 0 0 0 0 0 0 0 0 0 0 0 0.2 0"/>
<feBlend mode="normal" in2="BackgroundImageFix" result="effect1_dropShadow_35_211"/>
<feColorMatrix in="SourceAlpha" type="matrix" values="0 0 0 0 0 0 0 0 0 0 0 0 0 0 0 0 0 0 127 0" result="hardAlpha"/>
<feOffset dx="0.4" dy="0.4"/>
<feGaussianBlur stdDeviation="0.3"/>
<feComposite in2="hardAlpha" operator="out"/>
<feColorMatrix type="matrix" values="0 0 0 0 0 0 0 0 0 0 0 0 0 0 0 0 0 0 0.2 0"/>
<feBlend mode="normal" in2="effect1_dropShadow_35_211" result="effect2_dropShadow_35_211"/>
<feBlend mode="normal" in="SourceGraphic" in2="effect2_dropShadow_35_211" result="shape"/>
</filter>
<filter id="filter1_d_35_211" x="9.3" y="9.3" width="16.6" height="16.6" filterUnits="userSpaceOnUse" color-interpolation-filters="sRGB">
<feFlood flood-opacity="0" result="BackgroundImageFix"/>
<feColorMatrix in="SourceAlpha" type="matrix" values="0 0 0 0 0 0 0 0 0 0 0 0 0 0 0 0 0 0 127 0" result="hardAlpha"/>
<feOffset dx="-0.4" dy="-0.4"/>
<feGaussianBlur stdDeviation="0.4"/>
<feComposite in2="hardAlpha" operator="out"/>
<feColorMatrix type="matrix" values="0 0 0 0 0 0 0 0 0 0 0 0 0 0 0 0 0 0 0.2 0"/>
<feBlend mode="normal" in2="BackgroundImageFix" result="effect1_dropShadow_35_211"/>
<feBlend mode="normal" in="SourceGraphic" in2="effect1_dropShadow_35_211" result="shape"/>
</filter>
<filter id="filter2_d_35_211" x="10.8" y="10.8" width="13.6" height="13.6" filterUnits="userSpaceOnUse" color-interpolation-filters="sRGB">
<feFlood flood-opacity="0" result="BackgroundImageFix"/>
<feColorMatrix in="SourceAlpha" type="matrix" values="0 0 0 0 0 0 0 0 0 0 0 0 0 0 0 0 0 0 127 0" result="hardAlpha"/>
<feOffset dx="-0.4" dy="-0.4"/>
<feGaussianBlur stdDeviation="0.4"/>
<feComposite in2="hardAlpha" operator="out"/>
<feColorMatrix type="matrix" values="0 0 0 0 0 0 0 0 0 0 0 0 0 0 0 0 0 0 0.2 0"/>
<feBlend mode="normal" in2="BackgroundImageFix" result="effect1_dropShadow_35_211"/>
<feBlend mode="normal" in="SourceGraphic" in2="effect1_dropShadow_35_211" result="shape"/>
</filter>
<linearGradient id="paint0_linear_35_211" x1="18" y1="10.5" x2="18" y2="25.5" gradientUnits="userSpaceOnUse">
<stop stop-color="#EBEBEB"/>
<stop offset="1" stop-color="white"/>
</linearGradient>
<linearGradient id="paint1_linear_35_211" x1="18" y1="12" x2="18" y2="24" gradientUnits="userSpaceOnUse">
<stop stop-color="white"/>
<stop offset="1" stop-color="#F7F7F7"/>
</linearGradient>
</defs>
</svg>
